<svg width="18" height="17" viewBox="0 0 18 17" fill="none" xmlns="http://www.w3.org/2000/svg">
<path d="M10.1609 8.5L10.267 8.39394L16.6234 2.03722C16.77 1.89051 16.8509 1.6952 16.8511 1.4857C16.8511 1.27618 16.7702 1.08083 16.6236 0.934546L16.6235 0.934434L16.0664 0.377544L16.0663 0.377447C15.9196 0.230527 15.7245 0.15 15.5147 0.15C15.3053 0.15 15.1102 0.230502 14.9635 0.377447L14.9634 0.377532L8.60689 6.73387L8.50083 6.83993L8.39477 6.73387L2.03801 0.377534L2.03784 0.377363C1.89149 0.230547 1.69627 0.15 1.48656 0.15C1.27715 0.15 1.08193 0.23053 0.935556 0.377363L0.935349 0.377571L0.378084 0.934421C0.378071 0.934434 0.378057 0.934447 0.378044 0.93446C0.0739386 1.23861 0.074039 1.73348 0.378023 2.03712L0.378085 2.03718L6.7347 8.39394L6.84077 8.5L6.7347 8.60607L0.378167 14.9625C0.378161 14.9625 0.378155 14.9625 0.378148 14.9625C0.231403 15.1095 0.150691 15.3047 0.150691 15.5141C0.150691 15.7235 0.231391 15.9187 0.378057 16.0656L10.1609 8.5ZM10.1609 8.5L10.267 8.60606L16.6232 14.9626C16.7699 15.1095 16.8507 15.3048 16.8507 15.5141C16.8507 15.7235 16.7699 15.9189 16.6233 16.0656C16.6233 16.0656 16.6233 16.0656 16.6233 16.0656L16.0663 16.6225L16.0662 16.6225C15.9195 16.7694 15.7243 16.85 15.5148 16.85H15.5145C15.3052 16.85 15.11 16.7694 14.9633 16.6225L14.9632 16.6225L8.60676 10.266L8.50069 10.1599L8.39463 10.266L2.03787 16.6225L2.03774 16.6226C1.89134 16.7694 1.69608 16.85 1.48642 16.85C1.27719 16.85 1.08179 16.7694 0.935376 16.6226L0.935224 16.6224L0.378125 16.0656L10.1609 8.5Z" fill="white" stroke="white" stroke-width="0.3"/>
</svg>
