<svg width="13" height="13" viewBox="0 0 13 13" fill="none" xmlns="http://www.w3.org/2000/svg">
<g clip-path="url(#clip0)">
<path d="M12.0684 6.06055C12.0684 7.65185 11.4362 9.17797 10.311 10.3032C9.18578 11.4284 7.65966 12.0605 6.06836 12.0605C4.47706 12.0605 2.95094 11.4284 1.82572 10.3032C0.7005 9.17797 0.0683594 7.65185 0.0683594 6.06055C0.0683594 4.46925 0.7005 2.94312 1.82572 1.81791C2.95094 0.692688 4.47706 0.0605469 6.06836 0.0605469C7.65966 0.0605469 9.18578 0.692688 10.311 1.81791C11.4362 2.94312 12.0684 4.46925 12.0684 6.06055ZM6.06836 2.68555C6.06836 2.58609 6.02885 2.49071 5.95852 2.42038C5.8882 2.35006 5.79282 2.31055 5.69336 2.31055C5.5939 2.31055 5.49852 2.35006 5.42819 2.42038C5.35787 2.49071 5.31836 2.58609 5.31836 2.68555V6.81055C5.31838 6.87665 5.33587 6.94157 5.36906 6.99873C5.40225 7.05589 5.44996 7.10326 5.50736 7.13605L8.13236 8.63605C8.2185 8.6826 8.31944 8.69362 8.4136 8.66674C8.50776 8.63986 8.58766 8.57721 8.63625 8.4922C8.68483 8.40718 8.69823 8.30653 8.67358 8.21176C8.64894 8.117 8.5882 8.03563 8.50436 7.98505L6.06836 6.59305V2.68555Z" fill="#AFAFAF"/>
</g>
<defs>
<clipPath id="clip0">
<rect width="12" height="12" fill="white" transform="translate(0.0683594 0.0605469)"/>
</clipPath>
</defs>
</svg>
