<svg height="512pt" viewBox="-1 0 512 512.00063" width="512pt" xmlns="http://www.w3.org/2000/svg"><path d="m255.3125 1.375c-141.003906 0-255.3125 114.304688-255.3125 255.3125 0 141.003906 114.308594 255.3125 255.3125 255.3125 141.007812 0 255.3125-114.308594 255.3125-255.3125 0-141.007812-114.304688-255.3125-255.3125-255.3125zm0 354.144531c-54.582031 0-98.832031-44.25-98.832031-98.832031s44.25-98.832031 98.832031-98.832031 98.832031 44.25 98.832031 98.832031-44.25 98.832031-98.832031 98.832031zm0 0" fill="#f6d190"/><path d="m510.625 256.6875c0-141.007812-114.304688-255.3125-255.3125-255.3125-67.78125 0-129.390625 26.410156-175.101562 69.507812 11.746093 16.113282 4.964843 27.316407 22.675781 45.027344 20.175781 20.175782 31.824219 8.527344 51.996093 28.703125 18.855469 18.851563 9.910157 30.21875 25.105469 48.089844 18.128907-21.324219 45.144531-34.84375 75.324219-34.84375 54.582031 0 98.832031 44.246094 98.832031 98.828125 0 30.179688-13.523437 57.195312-34.84375 75.324219 17.828125 15.144531 29.191407 6.207031 47.996094 25.015625 20.152344 20.148437 8.503906 31.796875 28.65625 51.949218 17.765625 17.761719 28.980469 10.878907 45.183594 22.792969 43.085937-45.710937 69.488281-107.308593 69.488281-175.082031zm0 0" fill="#ff8086"/><path d="m285.019531 486.082031c-143.097656 0-259.097656-116.003906-259.097656-259.097656 0-55.652344 17.574219-107.183594 47.445313-149.398437-45.371094 46.082031-73.367188 109.324218-73.367188 179.101562 0 141.003906 114.308594 255.3125 255.3125 255.3125 69.78125 0 133.019531-27.996094 179.105469-73.363281-42.214844 29.871093-93.75 47.445312-149.398438 47.445312zm0 0" fill="#ecbd83"/><path d="m267.667969 145.503906c-30.4375 0-57.65625 13.753906-75.785157 35.390625 17.164063-14.382812 39.285157-23.039062 63.429688-23.039062 54.582031 0 98.832031 44.25 98.832031 98.832031 0 24.144531-8.671875 46.289062-23.054687 63.453125 21.636718-18.128906 35.410156-45.371094 35.410156-75.808594 0-54.582031-44.25-98.828125-98.832031-98.828125zm0 0" fill="#e5646e"/><path d="m188.75 91.253906c-.226562 0-.449219-.007812-.675781-.027344l-16.472657-1.34375c-4.535156-.371093-7.914062-4.34375-7.542968-8.875.371094-4.535156 4.472656-7.914062 8.878906-7.539062l16.472656 1.34375c4.535156.367188 7.914063 4.339844 7.542969 8.875-.351563 4.304688-3.957031 7.566406-8.203125 7.566406zm0 0" fill="#ffe07d"/><path d="m253.277344 100.894531c-3.433594 0-6.632813-2.164062-7.800782-5.597656-1.457031-4.308594.851563-8.980469 5.15625-10.445313l30.859376-10.464843c4.320312-1.433594 8.984374.851562 10.449218 5.15625 1.453125 4.308593-.855468 8.984375-5.15625 10.445312l-30.859375 10.464844c-.878906.296875-1.769531.441406-2.648437.441406zm0 0" fill="#b3e59f"/><path d="m374.742188 155.796875c-3.136719 0-6.128907-1.792969-7.503907-4.828125l-6.859375-15.101562c-1.882812-4.140626-.050781-9.023438 4.085938-10.90625 4.179687-1.875 9.03125-.039063 10.90625 4.09375l6.859375 15.101562c1.882812 4.140625.046875 9.023438-4.085938 10.90625-1.109375.5-2.269531.734375-3.402343.734375zm0 0" fill="#ccf49f"/><path d="m428.324219 182.59375c-.007813 0-.007813 0-.015625 0l-14.984375-.027344c-4.542969-.011718-8.230469-3.707031-8.222657-8.253906.007813-4.550781 3.460938-8.125 8.253907-8.21875l14.984375.027344c4.542968.007812 8.226562 3.703125 8.21875 8.25-.007813 4.546875-3.691406 8.222656-8.234375 8.222656zm0 0" fill="#ffe07d"/><path d="m399.539062 128.371094c-.464843 0-.933593-.035156-1.410156-.121094-4.480468-.769531-7.488281-5.03125-6.714844-9.511719l3.425782-19.902343c.773437-4.492188 5.035156-7.5 9.515625-6.71875 4.480469.773437 7.488281 5.03125 6.714843 9.511718l-3.425781 19.902344c-.691406 4.011719-4.171875 6.839844-8.105469 6.839844zm0 0" fill="#b3e59f"/><path d="m311.589844 127.664062c-3.296875 0-6.410156-1.996093-7.671875-5.257812-1.652344-4.238281.449219-9.011719 4.6875-10.660156l12.355469-4.804688c4.238281-1.636718 9.007812.449219 10.65625 4.691406 1.648437 4.238282-.449219 9.011719-4.691407 10.660157l-12.351562 4.808593c-.980469.382813-1.988281.5625-2.984375.5625zm0 0" fill="#ffe07d"/><path d="m424.40625 338.789062c-2.261719 0-4.511719-.925781-6.136719-2.742187-3.03125-3.386719-2.742187-8.59375.644531-11.628906l17.242188-15.441407c3.378906-3.03125 8.589844-2.75 11.628906.640626 3.03125 3.386718 2.746094 8.59375-.640625 11.628906l-17.246093 15.445312c-1.566407 1.40625-3.527344 2.097656-5.492188 2.097656zm0 0" fill="#ccf49f"/><path d="m416.605469 286.882812c-2.863281 0-5.636719-1.484374-7.15625-4.148437l-8.238281-14.414063c-2.257813-3.949218-.882813-8.980468 3.0625-11.234374 3.941406-2.265626 8.976562-.886719 11.238281 3.0625l8.234375 14.414062c2.261718 3.949219.886718 8.980469-3.0625 11.234375-1.289063.738281-2.695313 1.085937-4.078125 1.085937zm0 0" fill="#b3e59f"/><path d="m441.648438 378.6875c-.859376 0-1.734376-.140625-2.605469-.429688-4.308594-1.4375-6.640625-6.101562-5.203125-10.417968l2.574218-7.722656c1.441407-4.308594 6.0625-6.648438 10.417969-5.207032 4.308594 1.441406 6.640625 6.105469 5.203125 10.421875l-2.574218 7.71875c-1.152344 3.453125-4.359376 5.636719-7.8125 5.636719zm0 0" fill="#ffe07d"/><path d="m443.675781 260c-2.84375 0-5.613281-1.472656-7.140625-4.117188-2.277344-3.941406-.925781-8.976562 3.015625-11.25l18.613281-10.746093c3.914063-2.277344 8.964844-.925781 11.25 3.015625 2.277344 3.941406.925782 8.976562-3.015624 11.253906l-18.609376 10.742188c-1.296874.75-2.710937 1.101562-4.113281 1.101562zm0 0" fill="#ffe07d"/><g fill="#ccf49f"><path d="m402.183594 225.800781c-1.960938 0-3.933594-.699219-5.507813-2.113281l-6.863281-6.175781c-3.375-3.046875-3.648438-8.253907-.609375-11.632813 3.039063-3.371094 8.253906-3.640625 11.628906-.609375l6.863281 6.175781c3.378907 3.046876 3.648438 8.253907.609376 11.632813-1.625 1.804687-3.867188 2.722656-6.121094 2.722656zm0 0"/><path d="m349.390625 74.835938c-1.761719 0-3.539063-.566407-5.042969-1.730469l-24.761718-19.242188c-3.597657-2.792969-4.25-7.964843-1.457032-11.558593 2.789063-3.578126 7.953125-4.238282 11.558594-1.449219l24.761719 19.242187c3.597656 2.792969 4.25 7.964844 1.457031 11.558594-1.625 2.089844-4.054688 3.179688-6.515625 3.179688zm0 0"/><path d="m223.078125 68.632812c-1.535156 0-3.097656-.429687-4.480469-1.332031-3.8125-2.480469-4.898437-7.578125-2.414062-11.390625l10.265625-15.785156c2.46875-3.8125 7.574219-4.894531 11.386719-2.417969 3.8125 2.480469 4.898437 7.582031 2.414062 11.394531l-10.265625 15.78125c-1.574219 2.429688-4.210937 3.75-6.90625 3.75zm0 0"/><path d="m202.464844 140.699219c-2.027344 0-4.0625-.746094-5.65625-2.25l-12.351563-11.664063c-3.308593-3.125-3.460937-8.335937-.332031-11.644531 3.113281-3.308594 8.332031-3.460937 11.636719-.332031l12.355469 11.664062c3.304687 3.125 3.457031 8.335938.332031 11.644532-1.617188 1.714843-3.796875 2.582031-5.984375 2.582031zm0 0"/></g><path d="m100.898438 114.617188c-2.339844 0-4.65625-.984376-6.28125-2.902344-2.953126-3.464844-2.523438-8.660156.941406-11.609375l13.730468-11.664063c3.472657-2.941406 8.660157-2.523437 11.605469.941406 2.949219 3.46875 2.523438 8.664063-.941406 11.613282l-13.730469 11.664062c-1.550781 1.316406-3.441406 1.957032-5.324218 1.957032zm0 0" fill="#b3e59f"/><path d="m148.929688 55.601562c-3.410157 0-6.59375-2.136718-7.777344-5.539062l-5.484375-15.789062c-1.496094-4.292969.78125-8.988282 5.074219-10.484376 4.296874-1.5 8.984374.789063 10.480468 5.078126l5.484375 15.789062c1.496094 4.296875-.777343 8.988281-5.074219 10.484375-.890624.308594-1.808593.460937-2.703124.460937zm0 0" fill="#b3e59f"/><path d="m350.71875 222.371094c-2.824219 0-5.574219-1.449219-7.109375-4.058594-2.300781-3.921875-1-8.96875 2.925781-11.273438l11.671875-6.867187c3.917969-2.304687 8.96875-.992187 11.273438 2.925781 2.300781 3.921875 1 8.96875-2.925781 11.273438l-11.671876 6.863281c-1.308593.773437-2.75 1.136719-4.164062 1.136719zm0 0" fill="#ccf49f"/><path d="m370.625 315.027344c-.523438 0-1.046875-.046875-1.585938-.152344l-24.707031-4.808594c-4.464843-.867187-7.375-5.191406-6.507812-9.652344.863281-4.46875 5.132812-7.410156 9.660156-6.511718l24.707031 4.804687c4.464844.871094 7.375 5.191407 6.507813 9.65625-.765625 3.933594-4.214844 6.664063-8.074219 6.664063zm0 0" fill="#ffe07d"/><path d="m501.714844 315.710938c-.152344 0-.304688-.003907-.464844-.011719l-12.355469-.683594c-4.535156-.253906-8.019531-4.140625-7.761719-8.679687.25-4.539063 3.964844-7.964844 8.679688-7.769532l12.355469.683594c4.535156.253906 8.015625 4.140625 7.757812 8.679688-.242187 4.386718-3.867187 7.78125-8.210937 7.78125zm0 0" fill="#b3e59f"/><path d="m458.476562 140.699219c-2.476562 0-4.929687-1.117188-6.546874-3.234375-2.765626-3.609375-2.074219-8.785156 1.535156-11.546875l11.664062-8.917969c3.617188-2.757812 8.789063-2.074219 11.539063 1.539062 2.769531 3.609376 2.078125 8.78125-1.535157 11.546876l-11.660156 8.917968c-1.496094 1.144532-3.25 1.695313-4.996094 1.695313zm0 0" fill="#ccf49f"/><path d="m476.386719 197.003906c-3.882813 0-7.339844-2.757812-8.082031-6.71875-.84375-4.46875 2.101562-8.769531 6.570312-9.609375l18.441406-3.460937c4.523438-.832032 8.777344 2.109375 9.613282 6.582031.84375 4.464844-2.097657 8.769531-6.570313 9.609375l-18.441406 3.457031c-.515625.097657-1.03125.140625-1.53125.140625zm0 0" fill="#b3e59f"/><path d="m278.644531 36.378906c-.972656 0-1.960937-.171875-2.917969-.539062-4.257812-1.613282-6.394531-6.367188-4.777343-10.625l7.550781-19.898438c1.617188-4.253906 6.394531-6.390625 10.617188-4.777344 4.253906 1.617188 6.394531 6.367188 4.777343 10.625l-7.550781 19.902344c-1.246094 3.289063-4.375 5.3125-7.699219 5.3125zm0 0" fill="#ffe07d"/><path d="m269.726562 165.40625c-4.550781 0-8.234374-3.691406-8.234374-8.238281v-18.53125c0-4.546875 3.683593-8.234375 8.234374-8.234375 4.550782 0 8.234376 3.6875 8.234376 8.234375v18.53125c0 4.550781-3.683594 8.238281-8.234376 8.238281zm0 0" fill="#ccf49f"/><path d="m373.359375 367.875c-3.402344 0-6.589844-2.125-7.777344-5.515625-1.496093-4.292969.761719-8.992187 5.058594-10.496094l13.730469-4.804687c4.316406-1.496094 8.988281.761718 10.484375 5.050781 1.503906 4.292969-.753907 8.992187-5.050781 10.496094l-13.726563 4.804687c-.902344.3125-1.820313.464844-2.71875.464844zm0 0" fill="#b3e59f"/></svg>