<svg width="22" height="21" viewBox="0 0 22 21" fill="none" xmlns="http://www.w3.org/2000/svg">
<path d="M15.4988 0.472656H6.52188C3.47335 0.472656 0.993164 2.95296 0.993164 6.00149V14.9784C0.993164 18.0271 3.47335 20.5073 6.52188 20.5073H15.4988C18.5476 20.5073 21.0278 18.027 21.0278 14.9784V6.00149C21.0279 2.95296 18.5476 0.472656 15.4988 0.472656ZM19.2503 14.9784C19.2503 17.0469 17.5674 18.7297 15.499 18.7297H6.52188C4.4535 18.7298 2.77073 17.0469 2.77073 14.9784V6.00149C2.77073 3.93311 4.4535 2.25022 6.52188 2.25022H15.4988C17.5673 2.25022 19.2502 3.93311 19.2502 6.00149V14.9784H19.2503Z" fill="#204C86"/>
<path d="M11.0096 5.32812C8.16298 5.32812 5.84717 7.64394 5.84717 10.4905C5.84717 13.337 8.16298 15.6527 11.0096 15.6527C13.8562 15.6527 16.172 13.337 16.172 10.4905C16.172 7.64394 13.8562 5.32812 11.0096 5.32812ZM11.0096 13.875C9.14325 13.875 7.62474 12.3567 7.62474 10.4904C7.62474 8.62397 9.14313 7.10557 11.0096 7.10557C12.876 7.10557 14.3944 8.62397 14.3944 10.4904C14.3944 12.3567 12.8759 13.875 11.0096 13.875Z" fill="#204C86"/>
<path d="M16.3875 3.82031C16.0451 3.82031 15.7086 3.95896 15.4668 4.2019C15.2237 4.44365 15.084 4.7802 15.084 5.12386C15.084 5.46646 15.2238 5.80289 15.4668 6.04583C15.7085 6.28758 16.0451 6.42741 16.3875 6.42741C16.7312 6.42741 17.0666 6.28758 17.3095 6.04583C17.5524 5.80289 17.6911 5.46634 17.6911 5.12386C17.6911 4.7802 17.5524 4.44365 17.3095 4.2019C17.0678 3.95896 16.7312 3.82031 16.3875 3.82031Z" fill="#204C86"/>
</svg>
