<svg width="19" height="18" viewBox="0 0 19 18" fill="none" xmlns="http://www.w3.org/2000/svg">
<path d="M17.9996 17.8906V17.8898H18.004V11.4606C18.004 8.31541 17.3269 5.89258 13.6499 5.89258C11.8823 5.89258 10.696 6.86259 10.2118 7.78219H10.1606V6.18621H6.67432V17.8898H10.3045V12.0946C10.3045 10.5688 10.5938 9.09331 12.4834 9.09331C14.3453 9.09331 14.373 10.8346 14.373 12.1925V17.8906H17.9996Z" fill="#204C86"/>
<path d="M0.76123 6.1875H4.39584V17.8911H0.76123V6.1875Z" fill="#204C86"/>
<path d="M2.57677 0.359375C1.41466 0.359375 0.47168 1.30236 0.47168 2.46447C0.47168 3.62658 1.41466 4.58928 2.57677 4.58928C3.73888 4.58928 4.68186 3.62658 4.68186 2.46447C4.68113 1.30236 3.73815 0.359375 2.57677 0.359375V0.359375Z" fill="#204C86"/>
</svg>
