<svg width="14" height="15" viewBox="0 0 14 15" fill="none" xmlns="http://www.w3.org/2000/svg">
<path d="M13.6455 14.295V14.2945H13.6488V9.40052C13.6488 7.00637 13.1334 5.16211 10.3345 5.16211C8.98896 5.16211 8.08601 5.90048 7.71738 6.60049H7.67846V5.38562H5.02466V14.2945H7.78799V9.88313C7.78799 8.72164 8.00817 7.59852 9.44655 7.59852C10.8638 7.59852 10.8849 8.92403 10.8849 9.95764V14.295H13.6455Z" fill="#807E84"/>
<path d="M0.523804 5.38477H3.29048V14.2936H0.523804V5.38477Z" fill="#807E84"/>
<path d="M1.90562 0.949219C1.02102 0.949219 0.303223 1.66702 0.303223 2.55162C0.303223 3.43622 1.02102 4.16903 1.90562 4.16903C2.79023 4.16903 3.50803 3.43622 3.50803 2.55162C3.50747 1.66702 2.78967 0.949219 1.90562 0.949219V0.949219Z" fill="#807E84"/>
</svg>
