<svg width="16" height="23" viewBox="0 0 16 23" fill="none" xmlns="http://www.w3.org/2000/svg">
<path d="M14.371 4.16973C13.0358 1.86558 10.6643 0.457881 8.02708 0.404084C7.91451 0.401764 7.8012 0.401764 7.68858 0.404084C5.05141 0.457881 2.67989 1.86558 1.34468 4.16973C-0.0200954 6.52493 -0.0574351 9.35399 1.24477 11.7375L6.70021 21.7229C6.70266 21.7273 6.70511 21.7317 6.70764 21.7361C6.94767 22.1533 7.37766 22.4023 7.85792 22.4023C8.33813 22.4023 8.76812 22.1533 9.0081 21.7361C9.01064 21.7317 9.01309 21.7273 9.01554 21.7229L14.471 11.7375C15.7731 9.35399 15.7358 6.52493 14.371 4.16973ZM7.85783 10.3711C6.15193 10.3711 4.76408 8.98326 4.76408 7.27736C4.76408 5.57146 6.15193 4.18361 7.85783 4.18361C9.56373 4.18361 10.9516 5.57146 10.9516 7.27736C10.9516 8.98326 9.56377 10.3711 7.85783 10.3711Z" fill="#204C86"/>
</svg>
