<svg width="19" height="13" viewBox="0 0 19 13" fill="none" xmlns="http://www.w3.org/2000/svg">
<path d="M18.989 1.42578L12.4543 6.86718L19 11.2235V1.54842C19 1.5066 18.9957 1.46579 18.989 1.42578Z" fill="#807E84"/>
<path d="M11.864 7.35742L11.0403 8.04336C10.6533 8.36561 10.1789 8.52674 9.70459 8.52674C9.23025 8.52674 8.75583 8.36561 8.36888 8.04336L7.54513 7.35742L0.410156 12.1059V12.2037C0.410156 12.6089 0.739853 12.9386 1.14507 12.9386H18.264C18.6692 12.9386 18.9989 12.6089 18.9989 12.2037V12.1059L11.864 7.35742Z" fill="#807E84"/>
<path d="M18.2681 0.814453C18.2672 0.814453 18.2663 0.814453 18.2654 0.814453H1.14642C1.14551 0.814453 1.14464 0.814453 1.14374 0.814453C1.03997 0.814852 0.995062 0.947043 1.07479 1.01345L7.80165 6.61492C7.80244 6.61557 7.80324 6.61626 7.80404 6.61692L8.84048 7.47995C9.34194 7.89754 10.0699 7.89754 10.5714 7.47995L18.337 1.01345C18.4168 0.947007 18.3718 0.814816 18.2681 0.814453Z" fill="#807E84"/>
<path d="M0.42123 1.42578C0.414477 1.46579 0.410156 1.50653 0.410156 1.54842V11.2235L6.95584 6.86714L0.42123 1.42578Z" fill="#807E84"/>
</svg>
