<svg width="20" height="14" viewBox="0 0 20 14" fill="none" xmlns="http://www.w3.org/2000/svg">
<path d="M19.9186 1.05859L12.9126 6.89248L19.9304 11.563V1.19008C19.9304 1.14524 19.9258 1.10149 19.9186 1.05859Z" fill="#204C86"/>
<path d="M12.2801 7.41992L11.3969 8.15533C10.982 8.50083 10.4734 8.67358 9.96485 8.67358C9.4563 8.67358 8.94766 8.50083 8.5328 8.15533L7.64963 7.41992L0 12.5109V12.6158C0 13.0502 0.353478 13.4037 0.787921 13.4037H19.1417C19.5761 13.4037 19.9296 13.0502 19.9296 12.6158V12.5109L12.2801 7.41992Z" fill="#204C86"/>
<path d="M19.1456 0.402344C19.1446 0.402344 19.1436 0.402344 19.1427 0.402344H0.788927C0.787954 0.402344 0.78702 0.402344 0.786047 0.402344C0.674799 0.402772 0.626648 0.544498 0.712128 0.615692L7.9242 6.6212C7.92505 6.6219 7.92591 6.62264 7.92677 6.62334L9.03796 7.54863C9.57559 7.99635 10.3561 7.99635 10.8937 7.54863L19.2195 0.615692C19.305 0.544459 19.2568 0.402733 19.1456 0.402344Z" fill="#204C86"/>
<path d="M0.0118721 1.05859C0.00463208 1.10149 0 1.14516 0 1.19008V11.563L7.01783 6.89244L0.0118721 1.05859Z" fill="#204C86"/>
</svg>
