<svg width="22" height="22" viewBox="0 0 22 22" fill="none" xmlns="http://www.w3.org/2000/svg">
<path d="M18.6292 14.8172C17.4647 14.6842 16.3449 14.3721 15.3047 13.892C14.7979 13.6499 14.1828 13.7216 13.7957 14.0357L11.4678 15.4094C9.15862 13.8162 7.76446 12.0636 6.74866 9.47466L8.56237 7.5621C9.00406 7.21095 9.21242 6.64693 9.10459 6.08407C8.86915 4.95507 8.81672 3.79261 8.94947 2.63017C9.04331 1.80849 8.45103 1.06349 7.62935 0.969659L4.15194 0.572538C3.33026 0.478702 2.58526 1.07098 2.49143 1.89266C1.39663 11.4793 8.30614 20.1704 17.8928 21.2652C18.7145 21.3591 19.4595 20.7668 19.5533 19.9451L19.9493 16.4777C20.0431 15.656 19.4509 14.911 18.6292 14.8172Z" fill="#204C86"/>
</svg>
