<svg width="36" height="35" viewBox="0 0 36 35" fill="none" xmlns="http://www.w3.org/2000/svg">
<g clip-path="url(#clip0)">
<path fill-rule="evenodd" clip-rule="evenodd" d="M0.582827 15.1922C0.737239 6.70569 7.484 -0.0678389 15.6205 0.0865728C23.6849 0.236867 29.7317 6.11687 29.6822 14.5045H32.8631C33.0778 14.7245 33.1979 15.0197 33.1979 15.327C33.1979 15.6344 33.0778 15.9295 32.8631 16.1495L29.0625 20.3001C28.9577 20.4085 28.8321 20.4947 28.6933 20.5536C28.5545 20.6124 28.4052 20.6428 28.2544 20.6428C28.1037 20.6428 27.9544 20.6124 27.8156 20.5536C27.6767 20.4947 27.5512 20.4085 27.4464 20.3001L23.8949 16.1495C23.6792 15.9301 23.5584 15.6347 23.5584 15.327C23.5584 15.0193 23.6792 14.724 23.8949 14.5045H26.8225C26.8699 7.63216 22.1716 3.00804 15.5669 2.88451C8.91077 2.75687 3.39518 8.29922 3.26547 15.2416C3.13783 22.081 8.2993 27.753 14.8217 28.0392V30.8413C6.79842 30.5572 0.428415 23.5942 0.582827 15.1922Z" fill="#204C86"/>
</g>
<defs>
<clipPath id="clip0">
<rect width="35" height="35" fill="white" transform="translate(0.5)"/>
</clipPath>
</defs>
</svg>
