<svg width="18" height="18" viewBox="0 0 18 18" fill="none" xmlns="http://www.w3.org/2000/svg">
<path d="M16.8013 15.7559L12.3458 11.3004C13.1975 10.2031 13.7073 8.82741 13.7073 7.33334C13.7073 3.7585 10.7988 0.85 7.22394 0.85C3.6491 0.85 0.740625 3.75847 0.740625 7.33331C0.740625 10.9082 3.64913 13.8167 7.22397 13.8167C8.71804 13.8167 10.0937 13.3068 11.1911 12.4552L15.6466 16.9107C15.8058 17.0699 16.015 17.15 16.224 17.15C16.4329 17.15 16.6422 17.0699 16.8014 16.9107C17.1206 16.5915 17.1206 16.0752 16.8013 15.7559ZM7.22397 12.1833C4.54947 12.1833 2.37397 10.0078 2.37397 7.33331C2.37397 4.65881 4.54947 2.48331 7.22397 2.48331C9.89847 2.48331 12.074 4.65881 12.074 7.33331C12.074 10.0078 9.89844 12.1833 7.22397 12.1833Z" fill="#204C86" stroke="#204C86" stroke-width="0.3"/>
</svg>
