<svg width="24" height="25" viewBox="0 0 24 25" fill="none" xmlns="http://www.w3.org/2000/svg">
<g clip-path="url(#clip0)">
<path d="M16.3194 7.97922C15.2646 6.90799 13.7754 6.21484 12.1622 6.21484C10.5489 6.21484 9.05976 6.87649 8.00494 7.97922C6.95011 9.05045 6.26758 10.5628 6.26758 12.2011C6.26758 13.8395 6.95011 15.3518 8.00494 16.423C9.05976 17.4943 10.5489 18.1874 12.1622 18.1874C13.7754 18.1874 15.2646 17.5258 16.3194 16.423C17.3743 15.3518 18.0568 13.8395 18.0568 12.2011C18.0568 10.5628 17.4053 9.05045 16.3194 7.97922ZM15.2026 15.2888C14.427 16.0765 13.3411 16.5491 12.1622 16.5491C10.9833 16.5491 9.89742 16.0765 9.12181 15.2888C8.3462 14.5011 7.88084 13.3984 7.88084 12.2011C7.88084 11.0039 8.3462 9.90113 9.12181 9.11347C9.89742 8.3258 10.9833 7.85319 12.1622 7.85319C13.3411 7.85319 14.427 8.3258 15.2026 9.11347C15.9782 9.90113 16.4435 11.0039 16.4435 12.2011C16.4435 13.3984 15.9782 14.5011 15.2026 15.2888Z" fill="#204C86"/>
<path d="M23.0822 11.3809H20.6933C20.259 11.3809 19.8867 11.7589 19.8867 12.2C19.8867 12.6411 20.259 13.0192 20.6933 13.0192H23.0822C23.5165 13.0192 23.8888 12.6411 23.8888 12.2C23.8888 11.7589 23.5165 11.3809 23.0822 11.3809Z" fill="#204C86"/>
<path d="M12.1621 20.0449C11.7278 20.0449 11.3555 20.423 11.3555 20.8641V23.2901C11.3555 23.7312 11.7278 24.1093 12.1621 24.1093C12.5964 24.1093 12.9687 23.7312 12.9687 23.2901V20.8641C12.9687 20.423 12.5964 20.0449 12.1621 20.0449Z" fill="#204C86"/>
<path d="M20.4465 19.4789L18.7402 17.7461C18.461 17.431 17.9335 17.431 17.6233 17.7461C17.3131 18.0611 17.3131 18.5652 17.6233 18.8803L19.3296 20.6132C19.6399 20.9282 20.1363 20.9282 20.4465 20.6132C20.7567 20.2981 20.7567 19.794 20.4465 19.4789Z" fill="#204C86"/>
<path d="M12.1621 0.291016C11.7278 0.291016 11.3555 0.669097 11.3555 1.11019V3.53621C11.3555 3.9773 11.7278 4.35539 12.1621 4.35539C12.5964 4.35539 12.9687 3.9773 12.9687 3.53621V1.11019C12.9687 0.669097 12.5964 0.291016 12.1621 0.291016Z" fill="#204C86"/>
<path d="M20.4778 3.78903C20.1675 3.47397 19.6711 3.47397 19.3609 3.78903L17.6546 5.5219C17.3443 5.83697 17.3443 6.34108 17.6546 6.65615C17.9338 6.97121 18.4612 6.97121 18.7714 6.65615L20.4778 4.92328C20.788 4.60821 20.788 4.1041 20.4778 3.78903Z" fill="#204C86"/>
<path d="M3.63104 11.3809H1.24218C0.807838 11.3809 0.435547 11.7589 0.435547 12.2C0.435547 12.6411 0.776814 13.0192 1.24218 13.0192H3.63104C4.06538 13.0192 4.43767 12.6411 4.43767 12.2C4.43767 11.7589 4.06538 11.3809 3.63104 11.3809Z" fill="#204C86"/>
<path d="M6.6721 17.7461C6.39288 17.431 5.86547 17.431 5.55523 17.7461L3.84889 19.4789C3.53865 19.794 3.53865 20.2981 3.84889 20.6132C4.15914 20.9282 4.65552 20.9282 4.96577 20.6132L6.6721 18.8803C6.98234 18.5652 6.98234 18.0611 6.6721 17.7461Z" fill="#204C86"/>
<path d="M6.6721 5.5219L4.96577 3.78903C4.65552 3.47397 4.15914 3.47397 3.84889 3.78903C3.53865 4.1041 3.53865 4.60821 3.84889 4.92328L5.55523 6.65615C5.86547 6.97121 6.36186 6.97121 6.6721 6.65615C6.98234 6.34108 6.98234 5.83697 6.6721 5.5219Z" fill="#204C86"/>
</g>
<defs>
<clipPath id="clip0">
<rect width="23.4543" height="23.8191" fill="white" transform="translate(0.435547 0.291016)"/>
</clipPath>
</defs>
</svg>
