<svg width="26" height="19" viewBox="0 0 26 19" fill="none" xmlns="http://www.w3.org/2000/svg">
<path d="M1.30397 15.6449C1.81749 17.4664 3.38844 17.7996 3.49324 17.8636C6.07865 18.5678 20.5704 18.5699 23.1946 17.8636C24.9919 17.3437 25.322 15.7497 25.3838 15.6449C26.0682 12.0042 26.1132 7.25781 25.3524 3.1266L25.3838 3.33201C24.8703 1.51059 23.2994 1.17733 23.1946 1.1134C20.6437 0.420673 6.11429 0.394473 3.49324 1.1134C1.69593 1.63426 1.36581 3.22721 1.30397 3.33201C0.571424 7.15825 0.534744 11.5483 1.30397 15.6449ZM10.8261 13.3152V5.67219L17.3928 9.49948L10.8261 13.3152Z" fill="#204C86"/>
</svg>
