<svg width="26" height="27" viewBox="0 0 26 27" fill="none" xmlns="http://www.w3.org/2000/svg">
<path d="M14.7797 16.7812H15.8797L12.7197 9.72125L9.39965 16.7812H10.4997L11.2297 15.1712H14.0797L14.7797 16.7812ZM11.6497 14.2113L12.6797 11.9512L13.6697 14.2113H11.6497Z" fill="#204C86"/>
<path d="M18.3924 8.64719C17.9924 8.12719 17.4524 8.04719 17.1424 8.04719C16.0324 8.04719 15.0924 8.88719 15.0924 10.2572C15.0924 11.4172 15.8324 12.4972 17.1324 12.4972C17.4324 12.4972 17.9624 12.4272 18.3924 11.9272V12.3672H19.3724V8.15719H18.3924V8.64719ZM17.2624 8.92719C17.8824 8.92719 18.4524 9.36719 18.4524 10.2872C18.4524 11.1672 17.8824 11.6172 17.2624 11.6172C16.5524 11.6172 16.0924 11.0072 16.0924 10.2772C16.0924 9.52719 16.5524 8.92719 17.2624 8.92719Z" fill="#204C86"/>
<path d="M14.0666 0.900391C20.1414 0.900391 25.084 5.9198 25.084 12.0891C25.084 18.2587 20.1414 23.2778 14.0666 23.2778C7.9915 23.2778 3.0493 18.2587 3.0493 12.0891C3.0493 5.9198 7.9915 0.900391 14.0666 0.900391ZM14.0666 21.2122C19.02 21.2122 23.05 17.1196 23.05 12.0891C23.05 7.0587 19.02 2.966 14.0666 2.966C9.11325 2.966 5.08327 7.05865 5.08327 12.0891C5.08327 17.1195 9.11325 21.2122 14.0666 21.2122Z" fill="#204C86"/>
<path d="M0.362941 24.5443L6.19367 18.6229C6.59098 18.2194 7.2344 18.2194 7.63171 18.6229C8.02901 19.0261 8.02901 19.6802 7.63171 20.0833L1.80098 26.0047C1.60235 26.2065 1.3423 26.3073 1.08196 26.3073C0.82196 26.3073 0.561618 26.2065 0.362941 26.0047C-0.0343637 25.6016 -0.0343637 24.9475 0.362941 24.5443Z" fill="#204C86"/>
</svg>
